<mxfile host="app.diagrams.net" modified="2022-01-28T21:50:59.887Z" agent="5.0 (Macintosh)" etag="D4o2_cUyH4F__MWpmUgZ" version="16.4.8" type="github">
  <diagram id="bfi062UY6tOL5wbIw5Bm" name="Page-1">
    <mxGraphModel dx="946" dy="554" grid="1" gridSize="10" guides="1" tooltips="1" connect="1" arrows="1" fold="1" page="1" pageScale="1" pageWidth="850" pageHeight="1100" math="0" shadow="0">
      <root>
        <mxCell id="0" />
        <mxCell id="1" parent="0" />
        <mxCell id="eUU6cxYQ7u9guVnyjV0E-27" value="" style="rounded=0;whiteSpace=wrap;html=1;" parent="1" vertex="1">
          <mxGeometry x="520" y="475" width="245" height="165" as="geometry" />
        </mxCell>
        <mxCell id="eUU6cxYQ7u9guVnyjV0E-4" value="" style="rounded=0;whiteSpace=wrap;html=1;" parent="1" vertex="1">
          <mxGeometry x="120" y="320" width="230" height="150" as="geometry" />
        </mxCell>
        <mxCell id="eUU6cxYQ7u9guVnyjV0E-14" style="edgeStyle=orthogonalEdgeStyle;rounded=0;orthogonalLoop=1;jettySize=auto;html=1;exitX=1;exitY=1;exitDx=0;exitDy=-15;exitPerimeter=0;entryX=0;entryY=1;entryDx=0;entryDy=-15;entryPerimeter=0;" parent="1" source="eUU6cxYQ7u9guVnyjV0E-5" target="eUU6cxYQ7u9guVnyjV0E-7" edge="1">
          <mxGeometry relative="1" as="geometry" />
        </mxCell>
        <mxCell id="eUU6cxYQ7u9guVnyjV0E-31" style="edgeStyle=orthogonalEdgeStyle;rounded=0;orthogonalLoop=1;jettySize=auto;html=1;exitX=0;exitY=0.5;exitDx=0;exitDy=0;exitPerimeter=0;entryX=0;entryY=0.5;entryDx=0;entryDy=0;" parent="1" source="eUU6cxYQ7u9guVnyjV0E-5" target="eUU6cxYQ7u9guVnyjV0E-20" edge="1">
          <mxGeometry relative="1" as="geometry">
            <Array as="points">
              <mxPoint x="50" y="390" />
              <mxPoint x="50" y="580" />
            </Array>
          </mxGeometry>
        </mxCell>
        <mxCell id="eUU6cxYQ7u9guVnyjV0E-5" value="Cache in Memory" style="shape=cylinder3;whiteSpace=wrap;html=1;boundedLbl=1;backgroundOutline=1;size=15;" parent="1" vertex="1">
          <mxGeometry x="150" y="350" width="60" height="80" as="geometry" />
        </mxCell>
        <mxCell id="eUU6cxYQ7u9guVnyjV0E-13" style="edgeStyle=orthogonalEdgeStyle;rounded=0;orthogonalLoop=1;jettySize=auto;html=1;exitX=0;exitY=0;exitDx=0;exitDy=27.5;exitPerimeter=0;entryX=1;entryY=0;entryDx=0;entryDy=27.5;entryPerimeter=0;" parent="1" source="eUU6cxYQ7u9guVnyjV0E-7" target="eUU6cxYQ7u9guVnyjV0E-5" edge="1">
          <mxGeometry relative="1" as="geometry" />
        </mxCell>
        <mxCell id="eUU6cxYQ7u9guVnyjV0E-7" value="Disk Storage" style="shape=cylinder3;whiteSpace=wrap;html=1;boundedLbl=1;backgroundOutline=1;size=15;" parent="1" vertex="1">
          <mxGeometry x="250" y="350" width="60" height="80" as="geometry" />
        </mxCell>
        <mxCell id="eUU6cxYQ7u9guVnyjV0E-15" value="Cache Miss" style="text;html=1;strokeColor=none;fillColor=none;align=center;verticalAlign=middle;whiteSpace=wrap;rounded=0;" parent="1" vertex="1">
          <mxGeometry x="205" y="430" width="60" height="30" as="geometry" />
        </mxCell>
        <mxCell id="eUU6cxYQ7u9guVnyjV0E-16" value="Cached Data" style="text;html=1;strokeColor=none;fillColor=none;align=center;verticalAlign=middle;whiteSpace=wrap;rounded=0;" parent="1" vertex="1">
          <mxGeometry x="205" y="330" width="60" height="30" as="geometry" />
        </mxCell>
        <mxCell id="eUU6cxYQ7u9guVnyjV0E-22" style="edgeStyle=orthogonalEdgeStyle;rounded=0;orthogonalLoop=1;jettySize=auto;html=1;exitX=0.75;exitY=0;exitDx=0;exitDy=0;" parent="1" source="eUU6cxYQ7u9guVnyjV0E-20" target="eUU6cxYQ7u9guVnyjV0E-7" edge="1">
          <mxGeometry relative="1" as="geometry" />
        </mxCell>
        <mxCell id="eUU6cxYQ7u9guVnyjV0E-25" style="edgeStyle=orthogonalEdgeStyle;rounded=0;orthogonalLoop=1;jettySize=auto;html=1;exitX=0.25;exitY=0;exitDx=0;exitDy=0;entryX=0.5;entryY=1;entryDx=0;entryDy=0;entryPerimeter=0;" parent="1" source="eUU6cxYQ7u9guVnyjV0E-20" target="eUU6cxYQ7u9guVnyjV0E-5" edge="1">
          <mxGeometry relative="1" as="geometry" />
        </mxCell>
        <mxCell id="eUU6cxYQ7u9guVnyjV0E-29" style="edgeStyle=orthogonalEdgeStyle;rounded=0;orthogonalLoop=1;jettySize=auto;html=1;exitX=1;exitY=0.5;exitDx=0;exitDy=0;entryX=0.5;entryY=1;entryDx=0;entryDy=0;" parent="1" source="eUU6cxYQ7u9guVnyjV0E-20" target="eUU6cxYQ7u9guVnyjV0E-45" edge="1">
          <mxGeometry relative="1" as="geometry" />
        </mxCell>
        <mxCell id="eUU6cxYQ7u9guVnyjV0E-20" value="URL Shortener Server" style="shape=process;whiteSpace=wrap;html=1;backgroundOutline=1;" parent="1" vertex="1">
          <mxGeometry x="120" y="550" width="300" height="60" as="geometry" />
        </mxCell>
        <mxCell id="eUU6cxYQ7u9guVnyjV0E-23" value="Link Generation" style="text;html=1;strokeColor=none;fillColor=none;align=center;verticalAlign=middle;whiteSpace=wrap;rounded=0;" parent="1" vertex="1">
          <mxGeometry x="360" y="490" width="60" height="30" as="geometry" />
        </mxCell>
        <mxCell id="eUU6cxYQ7u9guVnyjV0E-26" value="Link Hit" style="text;html=1;strokeColor=none;fillColor=none;align=center;verticalAlign=middle;whiteSpace=wrap;rounded=0;" parent="1" vertex="1">
          <mxGeometry x="120" y="500" width="60" height="30" as="geometry" />
        </mxCell>
        <mxCell id="eUU6cxYQ7u9guVnyjV0E-28" value="Link Hit Log Store" style="shape=cylinder3;whiteSpace=wrap;html=1;boundedLbl=1;backgroundOutline=1;size=15;" parent="1" vertex="1">
          <mxGeometry x="640" y="517.5" width="60" height="80" as="geometry" />
        </mxCell>
        <mxCell id="eUU6cxYQ7u9guVnyjV0E-32" value="Original Link" style="text;html=1;strokeColor=none;fillColor=none;align=center;verticalAlign=middle;whiteSpace=wrap;rounded=0;" parent="1" vertex="1">
          <mxGeometry x="20" y="350" width="60" height="30" as="geometry" />
        </mxCell>
        <mxCell id="eUU6cxYQ7u9guVnyjV0E-34" value="&lt;div&gt;Link Hit and Metadata&lt;/div&gt;&lt;div&gt;&lt;br&gt;&lt;/div&gt;" style="text;html=1;strokeColor=none;fillColor=none;align=center;verticalAlign=middle;whiteSpace=wrap;rounded=0;" parent="1" vertex="1">
          <mxGeometry x="430" y="600" width="60" height="30" as="geometry" />
        </mxCell>
        <mxCell id="eUU6cxYQ7u9guVnyjV0E-46" style="edgeStyle=orthogonalEdgeStyle;rounded=0;orthogonalLoop=1;jettySize=auto;html=1;exitX=0.5;exitY=0;exitDx=0;exitDy=0;entryX=0;entryY=0.5;entryDx=0;entryDy=0;entryPerimeter=0;" parent="1" source="eUU6cxYQ7u9guVnyjV0E-45" target="eUU6cxYQ7u9guVnyjV0E-28" edge="1">
          <mxGeometry relative="1" as="geometry" />
        </mxCell>
        <mxCell id="eUU6cxYQ7u9guVnyjV0E-45" value="Link Hit Log Server" style="shape=process;whiteSpace=wrap;html=1;backgroundOutline=1;rotation=90;" parent="1" vertex="1">
          <mxGeometry x="508.75" y="538.75" width="120" height="37.5" as="geometry" />
        </mxCell>
      </root>
    </mxGraphModel>
  </diagram>
</mxfile>
